<mxfile host="app.diagrams.net" agent="Mozilla/5.0 (Windows NT 10.0; Win64; x64) AppleWebKit/537.36 (KHTML, like Gecko) Chrome/138.0.0.0 Safari/537.36 Edg/138.0.0.0" version="28.0.3" pages="2">
  <diagram name="Block Diagram" id="QcpKGnwwoArTGRbfNdWW">
    <mxGraphModel dx="2040" dy="675" grid="1" gridSize="10" guides="1" tooltips="1" connect="1" arrows="1" fold="1" page="1" pageScale="1" pageWidth="827" pageHeight="1169" math="0" shadow="0">
      <root>
        <mxCell id="0" />
        <mxCell id="1" parent="0" />
        <mxCell id="NwbfpjtBYrkbk4RMzC7q-35" value="" style="rounded=0;whiteSpace=wrap;html=1;fillColor=none;" vertex="1" parent="1">
          <mxGeometry x="-240" y="280" width="760" height="400" as="geometry" />
        </mxCell>
        <mxCell id="T2J0PPwgUDi-UGpcps89-8" value="&lt;font face=&quot;Times New Roman&quot; style=&quot;font-size: 15px;&quot;&gt;Memory&lt;/font&gt;" style="rounded=0;whiteSpace=wrap;html=1;fillColor=none;" vertex="1" parent="1">
          <mxGeometry x="-600" y="360" width="200" height="200" as="geometry" />
        </mxCell>
        <mxCell id="DY3-2yfPcZDpUx0qcLoC-1" value="&lt;font face=&quot;Times New Roman&quot; style=&quot;font-size: 15px;&quot;&gt;Control Uni&lt;/font&gt;&lt;span style=&quot;background-color: transparent; color: light-dark(rgb(0, 0, 0), rgb(255, 255, 255)); font-family: &amp;quot;Times New Roman&amp;quot;; font-size: 15px;&quot;&gt;t&lt;/span&gt;&lt;div&gt;&lt;span style=&quot;background-color: transparent; color: light-dark(rgb(0, 0, 0), rgb(255, 255, 255)); font-family: &amp;quot;Times New Roman&amp;quot;; font-size: 15px;&quot;&gt;&lt;br&gt;&lt;/span&gt;&lt;/div&gt;&lt;div&gt;&lt;span style=&quot;background-color: transparent; color: light-dark(rgb(0, 0, 0), rgb(255, 255, 255)); font-family: &amp;quot;Times New Roman&amp;quot;; font-size: 15px;&quot;&gt;&lt;br&gt;&lt;/span&gt;&lt;/div&gt;&lt;div&gt;&lt;span style=&quot;background-color: transparent; color: light-dark(rgb(0, 0, 0), rgb(255, 255, 255)); font-family: &amp;quot;Times New Roman&amp;quot;; font-size: 15px;&quot;&gt;&lt;br&gt;&lt;/span&gt;&lt;/div&gt;&lt;div&gt;&lt;span style=&quot;background-color: transparent; color: light-dark(rgb(0, 0, 0), rgb(255, 255, 255)); font-family: &amp;quot;Times New Roman&amp;quot;; font-size: 15px;&quot;&gt;&lt;br&gt;&lt;/span&gt;&lt;/div&gt;&lt;div&gt;&lt;span style=&quot;background-color: transparent; color: light-dark(rgb(0, 0, 0), rgb(255, 255, 255)); font-family: &amp;quot;Times New Roman&amp;quot;; font-size: 15px;&quot;&gt;&lt;br&gt;&lt;/span&gt;&lt;/div&gt;&lt;div&gt;&lt;span style=&quot;background-color: transparent; color: light-dark(rgb(0, 0, 0), rgb(255, 255, 255)); font-family: &amp;quot;Times New Roman&amp;quot;; font-size: 15px;&quot;&gt;&lt;br&gt;&lt;/span&gt;&lt;/div&gt;&lt;div&gt;&lt;span style=&quot;background-color: transparent; color: light-dark(rgb(0, 0, 0), rgb(255, 255, 255)); font-family: &amp;quot;Times New Roman&amp;quot;; font-size: 15px;&quot;&gt;&lt;br&gt;&lt;/span&gt;&lt;/div&gt;" style="rounded=0;whiteSpace=wrap;html=1;fillColor=none;" vertex="1" parent="1">
          <mxGeometry x="-200" y="320" width="320" height="320" as="geometry" />
        </mxCell>
        <mxCell id="DY3-2yfPcZDpUx0qcLoC-2" value="&lt;font face=&quot;Times New Roman&quot; style=&quot;font-size: 15px;&quot;&gt;Register File&lt;/font&gt;" style="rounded=0;whiteSpace=wrap;html=1;fillColor=none;" vertex="1" parent="1">
          <mxGeometry x="-174.96" y="500" width="270" height="110" as="geometry" />
        </mxCell>
        <mxCell id="DY3-2yfPcZDpUx0qcLoC-3" value="&lt;font face=&quot;Times New Roman&quot; style=&quot;font-size: 15px;&quot;&gt;ALU&lt;/font&gt;" style="rounded=0;whiteSpace=wrap;html=1;fillColor=none;" vertex="1" parent="1">
          <mxGeometry x="280" y="320" width="200" height="320" as="geometry" />
        </mxCell>
        <mxCell id="NwbfpjtBYrkbk4RMzC7q-1" value="" style="endArrow=classic;html=1;rounded=0;entryX=1.007;entryY=0.2;entryDx=0;entryDy=0;entryPerimeter=0;exitX=-0.001;exitY=0.299;exitDx=0;exitDy=0;exitPerimeter=0;" edge="1" parent="1" source="NwbfpjtBYrkbk4RMzC7q-35" target="T2J0PPwgUDi-UGpcps89-8">
          <mxGeometry width="50" height="50" relative="1" as="geometry">
            <mxPoint x="-250" y="410" as="sourcePoint" />
            <mxPoint x="-230" y="350" as="targetPoint" />
          </mxGeometry>
        </mxCell>
        <mxCell id="NwbfpjtBYrkbk4RMzC7q-2" value="mem_address[31:0]" style="edgeLabel;html=1;align=center;verticalAlign=middle;resizable=0;points=[];labelBackgroundColor=none;fontSize=15;fontFamily=Courier New;" vertex="1" connectable="0" parent="NwbfpjtBYrkbk4RMzC7q-1">
          <mxGeometry x="0.4743" y="2" relative="1" as="geometry">
            <mxPoint x="38" y="-12" as="offset" />
          </mxGeometry>
        </mxCell>
        <mxCell id="NwbfpjtBYrkbk4RMzC7q-3" value="" style="endArrow=classic;html=1;rounded=0;entryX=1.007;entryY=0.2;entryDx=0;entryDy=0;entryPerimeter=0;exitX=-0.001;exitY=0.4;exitDx=0;exitDy=0;exitPerimeter=0;" edge="1" parent="1" source="NwbfpjtBYrkbk4RMzC7q-35">
          <mxGeometry width="50" height="50" relative="1" as="geometry">
            <mxPoint x="-281" y="440" as="sourcePoint" />
            <mxPoint x="-400" y="440" as="targetPoint" />
          </mxGeometry>
        </mxCell>
        <mxCell id="NwbfpjtBYrkbk4RMzC7q-4" value="mem_wdata[31:0]" style="edgeLabel;html=1;align=center;verticalAlign=middle;resizable=0;points=[];labelBackgroundColor=none;fontSize=15;fontFamily=Courier New;" vertex="1" connectable="0" parent="NwbfpjtBYrkbk4RMzC7q-3">
          <mxGeometry x="0.4743" y="2" relative="1" as="geometry">
            <mxPoint x="39" y="-12" as="offset" />
          </mxGeometry>
        </mxCell>
        <mxCell id="NwbfpjtBYrkbk4RMzC7q-5" value="" style="endArrow=classic;html=1;rounded=0;entryX=0;entryY=0.5;entryDx=0;entryDy=0;" edge="1" parent="1" target="NwbfpjtBYrkbk4RMzC7q-35">
          <mxGeometry width="50" height="50" relative="1" as="geometry">
            <mxPoint x="-400" y="480" as="sourcePoint" />
            <mxPoint x="-281" y="480" as="targetPoint" />
          </mxGeometry>
        </mxCell>
        <mxCell id="NwbfpjtBYrkbk4RMzC7q-6" value="mem_rdata[31:0]" style="edgeLabel;html=1;align=center;verticalAlign=middle;resizable=0;points=[];labelBackgroundColor=none;fontSize=15;fontFamily=Courier New;" vertex="1" connectable="0" parent="NwbfpjtBYrkbk4RMzC7q-5">
          <mxGeometry x="0.4743" y="2" relative="1" as="geometry">
            <mxPoint x="-38" y="-10" as="offset" />
          </mxGeometry>
        </mxCell>
        <mxCell id="NwbfpjtBYrkbk4RMzC7q-7" value="" style="endArrow=classic;html=1;rounded=0;entryX=1.007;entryY=0.2;entryDx=0;entryDy=0;entryPerimeter=0;exitX=-0.002;exitY=0.599;exitDx=0;exitDy=0;exitPerimeter=0;" edge="1" parent="1" source="NwbfpjtBYrkbk4RMzC7q-35">
          <mxGeometry width="50" height="50" relative="1" as="geometry">
            <mxPoint x="-250" y="520" as="sourcePoint" />
            <mxPoint x="-399" y="520" as="targetPoint" />
          </mxGeometry>
        </mxCell>
        <mxCell id="NwbfpjtBYrkbk4RMzC7q-8" value="mem_wen" style="edgeLabel;html=1;align=center;verticalAlign=middle;resizable=0;points=[];labelBackgroundColor=none;fontSize=15;fontFamily=Courier New;" vertex="1" connectable="0" parent="NwbfpjtBYrkbk4RMzC7q-7">
          <mxGeometry x="0.4743" y="2" relative="1" as="geometry">
            <mxPoint x="38" y="-12" as="offset" />
          </mxGeometry>
        </mxCell>
        <mxCell id="NwbfpjtBYrkbk4RMzC7q-14" value="" style="endArrow=classic;html=1;rounded=0;entryX=0;entryY=0.5;entryDx=0;entryDy=0;" edge="1" parent="1">
          <mxGeometry width="50" height="50" relative="1" as="geometry">
            <mxPoint x="120" y="520" as="sourcePoint" />
            <mxPoint x="280" y="520.95" as="targetPoint" />
          </mxGeometry>
        </mxCell>
        <mxCell id="NwbfpjtBYrkbk4RMzC7q-15" value="alu_in_valid" style="edgeLabel;html=1;align=center;verticalAlign=middle;resizable=0;points=[];labelBackgroundColor=none;fontSize=15;fontFamily=Courier New;" vertex="1" connectable="0" parent="NwbfpjtBYrkbk4RMzC7q-14">
          <mxGeometry x="0.4743" y="2" relative="1" as="geometry">
            <mxPoint x="-40" y="-10" as="offset" />
          </mxGeometry>
        </mxCell>
        <mxCell id="NwbfpjtBYrkbk4RMzC7q-16" value="" style="endArrow=classic;html=1;rounded=0;entryX=1.007;entryY=0.2;entryDx=0;entryDy=0;entryPerimeter=0;exitX=0;exitY=0.622;exitDx=0;exitDy=0;exitPerimeter=0;" edge="1" parent="1">
          <mxGeometry width="50" height="50" relative="1" as="geometry">
            <mxPoint x="280" y="479.59999999999997" as="sourcePoint" />
            <mxPoint x="121" y="479.60999999999996" as="targetPoint" />
          </mxGeometry>
        </mxCell>
        <mxCell id="NwbfpjtBYrkbk4RMzC7q-17" value="alu_data_out[31:0]" style="edgeLabel;html=1;align=center;verticalAlign=middle;resizable=0;points=[];labelBackgroundColor=none;fontSize=15;fontFamily=Courier New;" vertex="1" connectable="0" parent="NwbfpjtBYrkbk4RMzC7q-16">
          <mxGeometry x="0.4743" y="2" relative="1" as="geometry">
            <mxPoint x="38" y="-12" as="offset" />
          </mxGeometry>
        </mxCell>
        <mxCell id="NwbfpjtBYrkbk4RMzC7q-18" value="" style="endArrow=classic;html=1;rounded=0;entryX=0;entryY=0.125;entryDx=0;entryDy=0;entryPerimeter=0;" edge="1" parent="1" target="DY3-2yfPcZDpUx0qcLoC-3">
          <mxGeometry width="50" height="50" relative="1" as="geometry">
            <mxPoint x="121" y="360" as="sourcePoint" />
            <mxPoint x="240" y="360" as="targetPoint" />
          </mxGeometry>
        </mxCell>
        <mxCell id="NwbfpjtBYrkbk4RMzC7q-19" value="alu_inst[6:0]" style="edgeLabel;html=1;align=center;verticalAlign=middle;resizable=0;points=[];labelBackgroundColor=none;fontSize=15;fontFamily=Courier New;" vertex="1" connectable="0" parent="NwbfpjtBYrkbk4RMzC7q-18">
          <mxGeometry x="0.4743" y="2" relative="1" as="geometry">
            <mxPoint x="-40" y="-10" as="offset" />
          </mxGeometry>
        </mxCell>
        <mxCell id="NwbfpjtBYrkbk4RMzC7q-23" value="" style="endArrow=classic;html=1;rounded=0;entryX=0;entryY=0.25;entryDx=0;entryDy=0;" edge="1" parent="1" target="DY3-2yfPcZDpUx0qcLoC-3">
          <mxGeometry width="50" height="50" relative="1" as="geometry">
            <mxPoint x="121" y="400" as="sourcePoint" />
            <mxPoint x="240" y="400" as="targetPoint" />
          </mxGeometry>
        </mxCell>
        <mxCell id="NwbfpjtBYrkbk4RMzC7q-24" value="alu_data_a[31:0]" style="edgeLabel;html=1;align=center;verticalAlign=middle;resizable=0;points=[];labelBackgroundColor=none;fontSize=15;fontFamily=Courier New;" vertex="1" connectable="0" parent="NwbfpjtBYrkbk4RMzC7q-23">
          <mxGeometry x="0.4743" y="2" relative="1" as="geometry">
            <mxPoint x="-40" y="-10" as="offset" />
          </mxGeometry>
        </mxCell>
        <mxCell id="NwbfpjtBYrkbk4RMzC7q-25" value="" style="endArrow=classic;html=1;rounded=0;entryX=0;entryY=0.375;entryDx=0;entryDy=0;entryPerimeter=0;" edge="1" parent="1" target="DY3-2yfPcZDpUx0qcLoC-3">
          <mxGeometry width="50" height="50" relative="1" as="geometry">
            <mxPoint x="121" y="440" as="sourcePoint" />
            <mxPoint x="240" y="440" as="targetPoint" />
          </mxGeometry>
        </mxCell>
        <mxCell id="NwbfpjtBYrkbk4RMzC7q-26" value="alu_data_b[31:0]" style="edgeLabel;html=1;align=center;verticalAlign=middle;resizable=0;points=[];labelBackgroundColor=none;fontSize=15;fontFamily=Courier New;" vertex="1" connectable="0" parent="NwbfpjtBYrkbk4RMzC7q-25">
          <mxGeometry x="0.4743" y="2" relative="1" as="geometry">
            <mxPoint x="-40" y="-10" as="offset" />
          </mxGeometry>
        </mxCell>
        <mxCell id="NwbfpjtBYrkbk4RMzC7q-29" value="" style="endArrow=classic;html=1;rounded=0;entryX=1.007;entryY=0.2;entryDx=0;entryDy=0;entryPerimeter=0;exitX=0;exitY=0.75;exitDx=0;exitDy=0;" edge="1" parent="1" source="DY3-2yfPcZDpUx0qcLoC-3">
          <mxGeometry width="50" height="50" relative="1" as="geometry">
            <mxPoint x="239" y="559.31" as="sourcePoint" />
            <mxPoint x="120" y="559.31" as="targetPoint" />
          </mxGeometry>
        </mxCell>
        <mxCell id="NwbfpjtBYrkbk4RMzC7q-30" value="alu_out_valid" style="edgeLabel;html=1;align=center;verticalAlign=middle;resizable=0;points=[];labelBackgroundColor=none;fontSize=15;fontFamily=Courier New;" vertex="1" connectable="0" parent="NwbfpjtBYrkbk4RMzC7q-29">
          <mxGeometry x="0.4743" y="2" relative="1" as="geometry">
            <mxPoint x="38" y="-12" as="offset" />
          </mxGeometry>
        </mxCell>
        <mxCell id="NwbfpjtBYrkbk4RMzC7q-31" value="" style="endArrow=classic;html=1;rounded=0;entryX=1.007;entryY=0.2;entryDx=0;entryDy=0;entryPerimeter=0;exitX=0;exitY=0.875;exitDx=0;exitDy=0;exitPerimeter=0;" edge="1" parent="1" source="DY3-2yfPcZDpUx0qcLoC-3">
          <mxGeometry width="50" height="50" relative="1" as="geometry">
            <mxPoint x="239" y="600" as="sourcePoint" />
            <mxPoint x="120" y="600" as="targetPoint" />
          </mxGeometry>
        </mxCell>
        <mxCell id="NwbfpjtBYrkbk4RMzC7q-32" value="alu_busy" style="edgeLabel;html=1;align=center;verticalAlign=middle;resizable=0;points=[];labelBackgroundColor=none;fontSize=15;fontFamily=Courier New;" vertex="1" connectable="0" parent="NwbfpjtBYrkbk4RMzC7q-31">
          <mxGeometry x="0.4743" y="2" relative="1" as="geometry">
            <mxPoint x="38" y="-12" as="offset" />
          </mxGeometry>
        </mxCell>
        <mxCell id="NwbfpjtBYrkbk4RMzC7q-41" value="" style="group" vertex="1" connectable="0" parent="1">
          <mxGeometry x="-719" y="760" width="70.62" height="87.5" as="geometry" />
        </mxCell>
        <mxCell id="NwbfpjtBYrkbk4RMzC7q-36" value="" style="rounded=0;whiteSpace=wrap;html=1;rotation=90;fillColor=none;" vertex="1" parent="NwbfpjtBYrkbk4RMzC7q-41">
          <mxGeometry x="-7.5" y="10" width="85" height="70" as="geometry" />
        </mxCell>
        <mxCell id="NwbfpjtBYrkbk4RMzC7q-65" style="edgeStyle=orthogonalEdgeStyle;rounded=0;orthogonalLoop=1;jettySize=auto;html=1;exitX=0;exitY=0.5;exitDx=0;exitDy=0;" edge="1" parent="NwbfpjtBYrkbk4RMzC7q-41" source="NwbfpjtBYrkbk4RMzC7q-37">
          <mxGeometry relative="1" as="geometry">
            <mxPoint x="359" y="-40" as="targetPoint" />
            <Array as="points">
              <mxPoint x="1" y="70" />
              <mxPoint x="-41" y="70" />
              <mxPoint x="-41" y="-40" />
            </Array>
          </mxGeometry>
        </mxCell>
        <mxCell id="NwbfpjtBYrkbk4RMzC7q-66" value="clk" style="edgeLabel;html=1;align=center;verticalAlign=middle;resizable=0;points=[];labelBackgroundColor=none;" vertex="1" connectable="0" parent="NwbfpjtBYrkbk4RMzC7q-65">
          <mxGeometry x="0.9585" y="-2" relative="1" as="geometry">
            <mxPoint x="-9" y="-12" as="offset" />
          </mxGeometry>
        </mxCell>
        <mxCell id="NwbfpjtBYrkbk4RMzC7q-37" value="" style="triangle;whiteSpace=wrap;html=1;fillColor=none;" vertex="1" parent="NwbfpjtBYrkbk4RMzC7q-41">
          <mxGeometry x="0.5" y="50" width="27.75" height="37" as="geometry" />
        </mxCell>
        <mxCell id="NwbfpjtBYrkbk4RMzC7q-38" value="D" style="text;html=1;align=center;verticalAlign=middle;whiteSpace=wrap;rounded=0;fontSize=15;" vertex="1" parent="NwbfpjtBYrkbk4RMzC7q-41">
          <mxGeometry x="0.5" width="18.12" height="30" as="geometry" />
        </mxCell>
        <mxCell id="NwbfpjtBYrkbk4RMzC7q-39" value="Q" style="text;html=1;align=center;verticalAlign=middle;whiteSpace=wrap;rounded=0;fontSize=15;" vertex="1" parent="NwbfpjtBYrkbk4RMzC7q-41">
          <mxGeometry x="52.5" width="18.12" height="30" as="geometry" />
        </mxCell>
        <mxCell id="NwbfpjtBYrkbk4RMzC7q-40" value="&lt;h4&gt;&lt;font face=&quot;Times New Roman&quot;&gt;DFF&lt;/font&gt;&lt;/h4&gt;" style="text;html=1;align=center;verticalAlign=middle;whiteSpace=wrap;rounded=0;fontSize=15;" vertex="1" parent="NwbfpjtBYrkbk4RMzC7q-41">
          <mxGeometry x="26.939999999999998" y="28" width="18.12" height="30" as="geometry" />
        </mxCell>
        <mxCell id="NwbfpjtBYrkbk4RMzC7q-56" style="edgeStyle=orthogonalEdgeStyle;rounded=0;orthogonalLoop=1;jettySize=auto;html=1;exitX=0.5;exitY=1;exitDx=0;exitDy=0;endArrow=none;endFill=0;" edge="1" parent="1" source="NwbfpjtBYrkbk4RMzC7q-43">
          <mxGeometry relative="1" as="geometry">
            <mxPoint x="-683.5384615384615" y="870" as="targetPoint" />
          </mxGeometry>
        </mxCell>
        <mxCell id="NwbfpjtBYrkbk4RMzC7q-43" value="" style="ellipse;whiteSpace=wrap;html=1;aspect=fixed;fillColor=none;" vertex="1" parent="1">
          <mxGeometry x="-688.69" y="847.5" width="10" height="10" as="geometry" />
        </mxCell>
        <mxCell id="NwbfpjtBYrkbk4RMzC7q-44" value="" style="group" vertex="1" connectable="0" parent="1">
          <mxGeometry x="-609" y="760" width="70.62" height="87.5" as="geometry" />
        </mxCell>
        <mxCell id="NwbfpjtBYrkbk4RMzC7q-45" value="" style="rounded=0;whiteSpace=wrap;html=1;rotation=90;fillColor=none;" vertex="1" parent="NwbfpjtBYrkbk4RMzC7q-44">
          <mxGeometry x="-7.5" y="10" width="85" height="70" as="geometry" />
        </mxCell>
        <mxCell id="NwbfpjtBYrkbk4RMzC7q-46" value="" style="triangle;whiteSpace=wrap;html=1;fillColor=none;" vertex="1" parent="NwbfpjtBYrkbk4RMzC7q-44">
          <mxGeometry x="0.5" y="50" width="27.75" height="37" as="geometry" />
        </mxCell>
        <mxCell id="NwbfpjtBYrkbk4RMzC7q-47" value="D" style="text;html=1;align=center;verticalAlign=middle;whiteSpace=wrap;rounded=0;fontSize=15;" vertex="1" parent="NwbfpjtBYrkbk4RMzC7q-44">
          <mxGeometry x="0.5" width="18.12" height="30" as="geometry" />
        </mxCell>
        <mxCell id="NwbfpjtBYrkbk4RMzC7q-63" style="edgeStyle=orthogonalEdgeStyle;rounded=0;orthogonalLoop=1;jettySize=auto;html=1;exitX=1;exitY=0.5;exitDx=0;exitDy=0;" edge="1" parent="NwbfpjtBYrkbk4RMzC7q-44" source="NwbfpjtBYrkbk4RMzC7q-48">
          <mxGeometry relative="1" as="geometry">
            <mxPoint x="249" y="15" as="targetPoint" />
          </mxGeometry>
        </mxCell>
        <mxCell id="NwbfpjtBYrkbk4RMzC7q-67" value="sync_rst_n" style="edgeLabel;html=1;align=center;verticalAlign=middle;resizable=0;points=[];" vertex="1" connectable="0" parent="NwbfpjtBYrkbk4RMzC7q-63">
          <mxGeometry x="0.8223" y="-1" relative="1" as="geometry">
            <mxPoint x="-24" y="-12" as="offset" />
          </mxGeometry>
        </mxCell>
        <mxCell id="NwbfpjtBYrkbk4RMzC7q-48" value="Q" style="text;html=1;align=center;verticalAlign=middle;whiteSpace=wrap;rounded=0;fontSize=15;" vertex="1" parent="NwbfpjtBYrkbk4RMzC7q-44">
          <mxGeometry x="52.5" width="18.12" height="30" as="geometry" />
        </mxCell>
        <mxCell id="NwbfpjtBYrkbk4RMzC7q-49" value="&lt;h4&gt;&lt;font face=&quot;Times New Roman&quot;&gt;DFF&lt;/font&gt;&lt;/h4&gt;" style="text;html=1;align=center;verticalAlign=middle;whiteSpace=wrap;rounded=0;fontSize=15;" vertex="1" parent="NwbfpjtBYrkbk4RMzC7q-44">
          <mxGeometry x="26.939999999999998" y="28" width="18.12" height="30" as="geometry" />
        </mxCell>
        <mxCell id="NwbfpjtBYrkbk4RMzC7q-57" style="edgeStyle=orthogonalEdgeStyle;rounded=0;orthogonalLoop=1;jettySize=auto;html=1;exitX=0.5;exitY=1;exitDx=0;exitDy=0;endArrow=none;endFill=0;" edge="1" parent="1" source="NwbfpjtBYrkbk4RMzC7q-50">
          <mxGeometry relative="1" as="geometry">
            <mxPoint x="-573.5384615384615" y="870" as="targetPoint" />
          </mxGeometry>
        </mxCell>
        <mxCell id="NwbfpjtBYrkbk4RMzC7q-50" value="" style="ellipse;whiteSpace=wrap;html=1;aspect=fixed;fillColor=none;" vertex="1" parent="1">
          <mxGeometry x="-578.69" y="847.5" width="10" height="10" as="geometry" />
        </mxCell>
        <mxCell id="NwbfpjtBYrkbk4RMzC7q-55" value="" style="endArrow=none;html=1;rounded=0;edgeStyle=orthogonalEdgeStyle;" edge="1" parent="1">
          <mxGeometry width="50" height="50" relative="1" as="geometry">
            <mxPoint x="-790" y="870" as="sourcePoint" />
            <mxPoint x="-572.69" y="870.5" as="targetPoint" />
          </mxGeometry>
        </mxCell>
        <mxCell id="NwbfpjtBYrkbk4RMzC7q-58" value="async_rst_n" style="edgeLabel;html=1;align=center;verticalAlign=middle;resizable=0;points=[];labelBackgroundColor=none;" vertex="1" connectable="0" parent="NwbfpjtBYrkbk4RMzC7q-55">
          <mxGeometry x="-0.9183" y="1" relative="1" as="geometry">
            <mxPoint y="-9" as="offset" />
          </mxGeometry>
        </mxCell>
        <mxCell id="NwbfpjtBYrkbk4RMzC7q-59" value="" style="endArrow=none;html=1;rounded=0;edgeStyle=orthogonalEdgeStyle;" edge="1" parent="1">
          <mxGeometry width="50" height="50" relative="1" as="geometry">
            <mxPoint x="-790" y="830" as="sourcePoint" />
            <mxPoint x="-719" y="830" as="targetPoint" />
          </mxGeometry>
        </mxCell>
        <mxCell id="NwbfpjtBYrkbk4RMzC7q-60" value="clk" style="edgeLabel;html=1;align=center;verticalAlign=middle;resizable=0;points=[];labelBackgroundColor=none;" vertex="1" connectable="0" parent="1">
          <mxGeometry x="-780" y="824" as="geometry">
            <mxPoint x="-14" y="-3" as="offset" />
          </mxGeometry>
        </mxCell>
        <mxCell id="NwbfpjtBYrkbk4RMzC7q-61" style="edgeStyle=orthogonalEdgeStyle;rounded=0;orthogonalLoop=1;jettySize=auto;html=1;exitX=0.75;exitY=0;exitDx=0;exitDy=0;entryX=0.75;entryY=1;entryDx=0;entryDy=0;endArrow=none;endFill=0;" edge="1" parent="1" source="NwbfpjtBYrkbk4RMzC7q-36" target="NwbfpjtBYrkbk4RMzC7q-45">
          <mxGeometry relative="1" as="geometry" />
        </mxCell>
        <mxCell id="NwbfpjtBYrkbk4RMzC7q-62" style="edgeStyle=orthogonalEdgeStyle;rounded=0;orthogonalLoop=1;jettySize=auto;html=1;exitX=1;exitY=0.5;exitDx=0;exitDy=0;entryX=0.147;entryY=1.014;entryDx=0;entryDy=0;entryPerimeter=0;endArrow=none;endFill=0;" edge="1" parent="1" source="NwbfpjtBYrkbk4RMzC7q-39" target="NwbfpjtBYrkbk4RMzC7q-45">
          <mxGeometry relative="1" as="geometry" />
        </mxCell>
      </root>
    </mxGraphModel>
  </diagram>
  <diagram id="YdFdFTzh-wO8qXKjnOhe" name="FSM">
    <mxGraphModel dx="1040" dy="579" grid="1" gridSize="10" guides="1" tooltips="1" connect="1" arrows="1" fold="1" page="1" pageScale="1" pageWidth="827" pageHeight="1169" math="0" shadow="0">
      <root>
        <mxCell id="0" />
        <mxCell id="1" parent="0" />
        <mxCell id="-ygLpQbhql7R3lfaQS4p-1" value="&lt;b&gt;&lt;font style=&quot;font-size: 15px;&quot; face=&quot;Times New Roman&quot;&gt;Instruction Fetch&lt;/font&gt;&lt;/b&gt;" style="ellipse;whiteSpace=wrap;html=1;aspect=fixed;" vertex="1" parent="1">
          <mxGeometry x="330" y="90" width="140" height="140" as="geometry" />
        </mxCell>
        <mxCell id="-ygLpQbhql7R3lfaQS4p-4" value="" style="endArrow=classic;html=1;rounded=0;" edge="1" parent="1">
          <mxGeometry width="50" height="50" relative="1" as="geometry">
            <mxPoint x="470" y="230" as="sourcePoint" />
            <mxPoint x="570" y="370" as="targetPoint" />
          </mxGeometry>
        </mxCell>
        <mxCell id="-ygLpQbhql7R3lfaQS4p-5" value="&lt;b&gt;&lt;font style=&quot;font-size: 15px;&quot; face=&quot;Times New Roman&quot;&gt;Instruction Decode&lt;/font&gt;&lt;/b&gt;" style="ellipse;whiteSpace=wrap;html=1;aspect=fixed;" vertex="1" parent="1">
          <mxGeometry x="570" y="370" width="140" height="140" as="geometry" />
        </mxCell>
        <mxCell id="-ygLpQbhql7R3lfaQS4p-6" value="&lt;b&gt;&lt;font style=&quot;font-size: 15px;&quot; face=&quot;Times New Roman&quot;&gt;CPU Execution&lt;/font&gt;&lt;/b&gt;" style="ellipse;whiteSpace=wrap;html=1;aspect=fixed;" vertex="1" parent="1">
          <mxGeometry x="90" y="370" width="140" height="140" as="geometry" />
        </mxCell>
        <mxCell id="-ygLpQbhql7R3lfaQS4p-7" value="" style="endArrow=classic;html=1;rounded=0;" edge="1" parent="1">
          <mxGeometry width="50" height="50" relative="1" as="geometry">
            <mxPoint x="540" y="440" as="sourcePoint" />
            <mxPoint x="260" y="440" as="targetPoint" />
          </mxGeometry>
        </mxCell>
      </root>
    </mxGraphModel>
  </diagram>
</mxfile>
